<?xml version="1.0" encoding="UTF-8" standalone="no"?>
<svg
   xmlns:dc="http://purl.org/dc/elements/1.1/"
   xmlns:cc="http://creativecommons.org/ns#"
   xmlns:rdf="http://www.w3.org/1999/02/22-rdf-syntax-ns#"
   xmlns:svg="http://www.w3.org/2000/svg"
   xmlns="http://www.w3.org/2000/svg"
   xmlns:sodipodi="http://sodipodi.sourceforge.net/DTD/sodipodi-0.dtd"
   xmlns:inkscape="http://www.inkscape.org/namespaces/inkscape"
   id="svg"
   width="16"
   height="16"
   version="1.1"
   inkscape:version="0.48.3.1 r9886"
   sodipodi:docname="icon.svg"
   inkscape:export-filename="icon.png"
   inkscape:export-xdpi="2880"
   inkscape:export-ydpi="2880">
  <defs
     id="defs" />
  <title
     id="title">Icon</title>
  <sodipodi:namedview
     id="base"
     pagecolor="#ffffff"
     bordercolor="#000000"
     borderopacity="0.5"
     inkscape:pageopacity="0.0"
     inkscape:pageshadow="2"
     inkscape:zoom="48"
     inkscape:cx="4.625"
     inkscape:cy="8"
     inkscape:document-units="px"
     inkscape:current-layer="svg"
     showgrid="true"
     units="px"
     showborder="true"
     borderlayer="false"
     inkscape:showpageshadow="true"
     objecttolerance="10000"
     guidetolerance="10000"
     inkscape:window-width="1680"
     inkscape:window-height="1001"
     inkscape:window-x="-4"
     inkscape:window-y="-4"
     inkscape:window-maximized="1"
     inkscape:snap-global="true"
     inkscape:snap-bbox="true"
     inkscape:snap-object-midpoints="false"
     inkscape:snap-nodes="true"
     inkscape:snap-center="false">
    <inkscape:grid
       id="grid"
       type="xygrid"
       empspacing="2"
       visible="true"
       enabled="true"
       snapvisiblegridlinesonly="true"
       dotted="false"
       spacingx="1px"
       empcolor="#00ffff"
       empopacity="0.25"
       color="#00ffff"
       opacity="0.125" />
    <inkscape:grid
       id="supergrid"
       type="xygrid"
       empspacing="2"
       visible="true"
       enabled="true"
       snapvisiblegridlinesonly="true"
       color="#0000ff"
       opacity="0.125"
       empcolor="#0000ff"
       empopacity="0.25"
       spacingx="2px"
       spacingy="2px" />
  </sodipodi:namedview>
  <metadata
     id="metadata">
    <rdf:RDF>
      <cc:Work
         rdf:about="">
        <dc:format>image/svg+xml</dc:format>
        <dc:type
           rdf:resource="http://purl.org/dc/dcmitype/StillImage" />
        <dc:title>Icon</dc:title>
        <dc:creator>
          <cc:Agent>
            <dc:title>Sampsa &quot;Tuplanolla&quot; Kiiskinen</dc:title>
          </cc:Agent>
        </dc:creator>
        <cc:license
           rdf:resource="http://creativecommons.org/licenses/by-nc-sa/3.0/" />
        <dc:contributor>
          <cc:Agent>
            <dc:title>Denelson83</dc:title>
          </cc:Agent>
        </dc:contributor>
      </cc:Work>
      <cc:License
         rdf:about="http://creativecommons.org/licenses/by-nc-sa/3.0/">
        <cc:permits
           rdf:resource="http://creativecommons.org/ns#Reproduction" />
        <cc:permits
           rdf:resource="http://creativecommons.org/ns#Distribution" />
        <cc:requires
           rdf:resource="http://creativecommons.org/ns#Notice" />
        <cc:requires
           rdf:resource="http://creativecommons.org/ns#Attribution" />
        <cc:prohibits
           rdf:resource="http://creativecommons.org/ns#CommercialUse" />
        <cc:permits
           rdf:resource="http://creativecommons.org/ns#DerivativeWorks" />
        <cc:requires
           rdf:resource="http://creativecommons.org/ns#ShareAlike" />
      </cc:License>
    </rdf:RDF>
  </metadata>
  <g
     id="icon"
     transform="translate(0,8)">
    <rect
       id="background"
       style="fill:#ffffff;fill-opacity:1;fill-rule:nonzero;stroke:none"
       y="-8"
       x="0"
       height="16"
       width="16" />
    <g
       transform="matrix(-0.07999995,0,0,0.07999995,28.086485,-72.030225)"
       id="lines">
      <path
         style="fill:none;stroke:#000000;stroke-width:3.12500191;stroke-linecap:round;stroke-linejoin:round;stroke-miterlimit:0;stroke-opacity:1;stroke-dasharray:none;stroke-dashoffset:0"
         d="m 351.08128,850.37833 -200.00012,0"
         id="f-line"
         inkscape:connector-curvature="0"
         sodipodi:nodetypes="cc" />
      <path
         sodipodi:nodetypes="cc"
         inkscape:connector-curvature="0"
         id="d-line"
         d="m 351.08128,875.37835 -200.00012,0"
         style="fill:none;stroke:#000000;stroke-width:3.12500191;stroke-linecap:round;stroke-linejoin:round;stroke-miterlimit:0;stroke-opacity:1;stroke-dasharray:none;stroke-dashoffset:0" />
      <path
         style="fill:none;stroke:#000000;stroke-width:3.12500191;stroke-linecap:round;stroke-linejoin:round;stroke-miterlimit:0;stroke-opacity:1;stroke-dasharray:none;stroke-dashoffset:0"
         d="m 351.08128,900.37837 -200.00012,0"
         id="b-line"
         inkscape:connector-curvature="0"
         sodipodi:nodetypes="cc" />
      <path
         sodipodi:nodetypes="cc"
         inkscape:connector-curvature="0"
         id="g-line"
         d="m 351.08128,925.37839 -200.00012,0"
         style="fill:none;stroke:#000000;stroke-width:3.12500191;stroke-linecap:round;stroke-linejoin:round;stroke-miterlimit:0;stroke-opacity:1;stroke-dasharray:none;stroke-dashoffset:0" />
      <path
         style="fill:none;stroke:#000000;stroke-width:3.12500191;stroke-linecap:round;stroke-linejoin:round;stroke-miterlimit:0;stroke-opacity:1;stroke-dasharray:none;stroke-dashoffset:0"
         d="m 351.08128,950.37841 -200.00012,0"
         id="e-line"
         inkscape:connector-curvature="0"
         sodipodi:nodetypes="cc" />
    </g>
    <g
       id="g-clef"
       transform="matrix(0.08331376,0,0,0.08331376,-5.0001284,-79.673844)">
      <path
         style="fill:#000000;stroke:none"
         id="g-clef-body"
         d="m 104.549,964.001 c -2.589,0.845 -4.7286,2.271 -6.419,4.279 -1.6906,2.007 -2.7207,4.2 -3.0905,6.577 -0.3698,2.377 -0.066,4.728 0.9113,7.052 0.9773,2.325 2.8131,4.2 5.5072,5.627 0.634,0 1.03,0.264 1.189,0.792 0.158,0.528 -0.08,0.792 -0.713,0.792 -2.589,-0.528 -4.8606,-1.611 -6.8152,-3.248 -3.6452,-3.012 -5.6526,-6.894 -6.0224,-11.649 -0.2113,-2.377 0.0132,-4.675 0.6736,-6.894 0.6603,-2.219 1.5716,-4.253 2.7338,-6.102 1.4263,-1.954 3.1168,-3.645 5.0715,-5.071 0.1056,-0.106 0.4094,-0.343 0.9112,-0.713 0.5019,-0.37 0.9905,-0.713 1.466,-1.03 0.4755,-0.317 1.1885,-0.819 2.1395,-1.506 l -2.9319,-14.105 c -2.5886,2.166 -5.1507,4.556 -7.6864,7.171 -2.5358,2.615 -4.8338,5.376 -6.8941,8.281 -2.0602,2.906 -3.7111,5.983 -4.9526,9.232 -1.2414,3.249 -1.8621,6.669 -1.8621,10.262 0,3.328 0.6999,6.458 2.0999,9.39 1.3999,2.932 3.2621,5.481 5.5865,7.646 2.3244,2.166 5.0054,3.87 8.043,5.112 3.0376,1.241 6.1148,1.862 9.2317,1.862 0.106,0 0.594,-0.053 1.466,-0.159 0.872,-0.105 1.796,-0.237 2.773,-0.396 0.978,-0.158 1.876,-0.33 2.695,-0.515 0.818,-0.185 1.228,-0.383 1.228,-0.594 l -0.476,-2.219 c -2.06,-10.407 -4.015,-20.365 -5.863,-29.874 z m 2.773,-0.317 6.498,31.459 c 3.751,-1.427 6.286,-3.87 7.607,-7.33 1.321,-3.46 1.624,-6.973 0.911,-10.539 -0.713,-3.566 -2.39,-6.723 -5.032,-9.47 -2.641,-2.747 -5.969,-4.12 -9.984,-4.12 z M 99.0016,921.29 c 1.6374,-0.846 3.1564,-2.113 4.5564,-3.804 1.4,-1.69 2.694,-3.5 3.883,-5.428 1.188,-1.928 2.219,-3.896 3.09,-5.904 0.872,-2.007 1.572,-3.829 2.1,-5.467 0.581,-1.743 0.977,-3.698 1.189,-5.864 0.211,-2.166 -0.132,-3.988 -1.03,-5.468 -0.634,-1.32 -1.466,-2.086 -2.496,-2.298 -1.031,-0.211 -2.061,-0.132 -3.091,0.238 -1.03,0.37 -2.007,0.964 -2.932,1.783 -0.924,0.819 -1.598,1.545 -2.02,2.179 -1.163,2.06 -2.18,4.358 -3.0513,6.894 -0.8717,2.536 -1.466,5.164 -1.7829,7.885 -0.317,2.72 -0.3566,5.335 -0.1189,7.845 0.2377,2.509 0.8056,4.979 1.7037,7.409 z m -2.3772,2.456 c -0.8981,-3.486 -1.6905,-6.907 -2.3773,-10.262 -0.6868,-3.354 -1.0301,-6.801 -1.0301,-10.341 0,-2.588 0.1849,-5.428 0.5547,-8.518 0.3697,-3.09 1.0433,-6.102 2.0206,-9.034 0.9773,-2.932 2.3244,-5.56 4.0413,-7.884 1.7174,-2.325 4.0014,-4.015 6.8544,-5.072 0.264,-0.105 0.528,-0.158 0.792,-0.158 0.37,0 0.806,0.211 1.308,0.634 0.502,0.422 1.03,1.043 1.585,1.862 0.554,0.819 1.043,1.664 1.466,2.536 0.422,0.871 0.739,1.466 0.951,1.783 1.426,2.694 2.469,5.56 3.13,8.597 0.66,3.038 1.043,6.062 1.149,9.073 0.211,4.544 -0.04,9.034 -0.753,13.472 -0.713,4.437 -2.153,8.769 -4.319,12.995 -0.739,1.268 -1.492,2.549 -2.258,3.843 -0.766,1.295 -1.677,2.549 -2.734,3.764 -0.211,0.212 -0.594,0.595 -1.149,1.149 -0.555,0.555 -1.123,1.123 -1.704,1.704 -0.581,0.581 -1.096,1.123 -1.545,1.624 -0.449,0.502 -0.673,0.806 -0.673,0.912 l 3.248,15.848 c 0.021,0.104 1.625,0 1.625,0 3.1,0.039 6.382,0.541 9.232,1.664 2.747,1.268 5.111,3.011 7.092,5.23 1.981,2.219 3.565,4.715 4.754,7.488 1.189,2.774 1.783,5.587 1.783,8.44 0,2.852 -0.423,5.758 -1.268,8.716 -2.166,5.6 -5.626,9.747 -10.38,12.441 -0.529,0.317 -1.282,0.674 -2.259,1.07 -0.977,0.396 -1.36,1.017 -1.149,1.862 1.268,5.756 2.126,9.716 2.576,11.886 0.449,2.17 0.779,4.97 0.99,8.4 0.211,3.28 -0.357,6.23 -1.704,8.87 -1.347,2.65 -3.156,4.8 -5.428,6.46 -2.271,1.67 -4.345,2.64 -6.22,2.94 -1.876,0.29 -3.157,0.43 -3.843,0.43 -2.3776,0 -4.702,-0.45 -6.9736,-1.35 -2.7999,-1.05 -5.1507,-2.66 -7.0525,-4.83 -1.9018,-2.17 -2.8527,-4.81 -2.8527,-7.92 0,-1.96 0.5679,-3.97 1.7037,-6.03 1.1358,-2.06 2.6282,-3.54 4.4771,-4.43 2.0603,-1.06 3.9225,-1.35 5.5866,-0.88 1.664,0.48 3.0375,1.38 4.1205,2.7 1.0829,1.32 1.8359,2.92 2.2589,4.79 0.422,1.88 0.396,3.63 -0.08,5.27 -0.475,1.64 -1.439,3.03 -2.892,4.16 -1.4528,1.14 -3.4735,1.65 -6.062,1.55 1.0565,1.9 2.5357,3.1 4.4375,3.6 1.9018,0.51 3.8565,0.54 5.8635,0.12 2.008,-0.42 3.896,-1.2 5.666,-2.34 1.77,-1.13 3.157,-2.36 4.16,-3.68 0.634,-0.95 1.11,-2.19 1.427,-3.72 0.317,-1.54 0.502,-3.13 0.554,-4.8 0.053,-1.66 0,-2.96 -0.158,-3.88 -0.159,-0.93 -0.423,-2.37 -0.793,-4.32 -1.584,-6.39 -2.588,-10.41 -3.011,-12.05 -0.211,-0.523 -0.779,-0.695 -1.703,-0.51 -0.925,0.185 -1.704,0.357 -2.338,0.51 -4.543,0.59 -8.3468,0.32 -11.4108,-0.787 -4.7545,-1.268 -8.9411,-3.527 -12.5598,-6.776 -3.6187,-3.248 -6.5242,-7.184 -8.7166,-11.807 -2.1923,-4.622 -3.2885,-8.135 -3.2885,-10.539 0,-2.403 0,-3.922 0,-4.556 0,-4.279 0.7396,-8.294 2.2188,-12.045 2.7998,-5.864 6.1148,-11.252 9.9448,-16.165 3.83,-4.913 8.2015,-9.483 13.1145,-13.709 z"
         inkscape:connector-curvature="0" />
    </g>
    <g
       id="notes"
       transform="translate(0,-8.0161784)">
      <g
         id="d-note"
         transform="matrix(0.07999995,0,0,0.07999995,0,-66.030224)">
        <path
           style="fill:none;stroke:#000000;stroke-width:1.95333612px;stroke-linecap:butt;stroke-linejoin:miter;stroke-opacity:1"
           id="d-note-tail"
           d="m 113.13433,900.47269 0,83.14019"
           inkscape:connector-curvature="0" />
        <path
           style="fill-opacity:1;stroke:#000000;stroke-width:0;stroke-miterlimit:4;stroke-opacity:0.26666667;stroke-dasharray:none"
           id="d-note-body"
           transform="matrix(1.2477873,-0.63522684,0.59622185,1.3694102,-142.33379,929.29558)"
           d="m 153.03812,108.7706 a 11.237947,7.3223042 0 1 1 -0.33175,-1.76601"
           inkscape:connector-curvature="0" />
      </g>
      <g
         id="b-note"
         transform="matrix(-0.07999995,0,0,0.07999995,21.086485,-71.029928)">
        <path
           style="fill:none;stroke:#000000;stroke-width:1.95333612px;stroke-linecap:butt;stroke-linejoin:miter;stroke-opacity:1"
           id="b-note-tail"
           d="m 113.13433,900.47269 0,83.14019"
           inkscape:connector-curvature="0" />
        <path
           style="fill-opacity:1;stroke:#000000;stroke-width:0;stroke-miterlimit:4;stroke-opacity:0.26666667;stroke-dasharray:none"
           id="b-note-body"
           transform="matrix(1.2477873,-0.63522684,0.59622185,1.3694102,-142.33379,929.29558)"
           d="m 153.03812,108.7706 a 11.237947,7.3223042 0 1 1 -0.33175,-1.76601"
           inkscape:connector-curvature="0" />
      </g>
    </g>
    <text
       xml:space="preserve"
       style="font-size:3.0889895px;font-style:italic;font-variant:normal;font-weight:normal;font-stretch:normal;text-align:start;line-height:100%;letter-spacing:0px;word-spacing:0px;text-anchor:start;fill:#000000;fill-opacity:1;stroke:none;font-family:Times New Roman;-inkscape-font-specification:'Times New Roman, Italic'"
       x="6.5248866"
       y="-5.0361991"
       id="text"
       sodipodi:linespacing="100%"><tspan
         sodipodi:role="line"
         id="sit"
         x="6.5248866"
         y="-5.0361991">sit</tspan></text>
    <rect
       id="frame"
       style="fill:none;stroke:#000000;stroke-width:0.5;stroke-linecap:round;stroke-linejoin:round;stroke-miterlimit:0;stroke-opacity:1;stroke-dasharray:none;stroke-dashoffset:0"
       width="15.999999"
       height="15.999998"
       x="0"
       y="-8" />
  </g>
</svg>
